<mxfile modified="2024-05-23T19:26:30.295Z" host="app.diagrams.net" agent="Mozilla/5.0 (Macintosh; Intel Mac OS X 10_15_7) AppleWebKit/537.36 (KHTML, like Gecko) Chrome/125.0.0.0 Safari/537.36" etag="cHx4BMyWuQR0ZM_ATnMm" version="24.4.0" type="github" pages="2">
  <diagram id="Ht1M8jgEwFfnCIfOTk4-" name="Architecture">
    <mxGraphModel dx="1719" dy="1894" grid="1" gridSize="10" guides="1" tooltips="1" connect="1" arrows="1" fold="1" page="1" pageScale="1" pageWidth="1169" pageHeight="827" math="0" shadow="0">
      <root>
        <mxCell id="0" />
        <mxCell id="1" parent="0" />
        <mxCell id="uP9no_Rh5933YcSvd-uY-47" value="" style="rounded=0;whiteSpace=wrap;html=1;" parent="1" vertex="1">
          <mxGeometry x="370" y="-330" width="410" height="150" as="geometry" />
        </mxCell>
        <mxCell id="UEzPUAAOIrF-is8g5C7q-175" value="AWS Cloud" style="points=[[0,0],[0.25,0],[0.5,0],[0.75,0],[1,0],[1,0.25],[1,0.5],[1,0.75],[1,1],[0.75,1],[0.5,1],[0.25,1],[0,1],[0,0.75],[0,0.5],[0,0.25]];outlineConnect=0;gradientColor=none;html=1;whiteSpace=wrap;fontSize=12;fontStyle=0;shape=mxgraph.aws4.group;grIcon=mxgraph.aws4.group_aws_cloud_alt;strokeColor=#232F3E;fillColor=none;verticalAlign=top;align=left;spacingLeft=30;fontColor=#232F3E;dashed=0;labelBackgroundColor=#ffffff;container=1;pointerEvents=0;collapsible=0;recursiveResize=0;" parent="1" vertex="1">
          <mxGeometry x="219" y="-789.5" width="730" height="410" as="geometry" />
        </mxCell>
        <mxCell id="uP9no_Rh5933YcSvd-uY-31" value="" style="sketch=0;points=[[0,0,0],[0.25,0,0],[0.5,0,0],[0.75,0,0],[1,0,0],[0,1,0],[0.25,1,0],[0.5,1,0],[0.75,1,0],[1,1,0],[0,0.25,0],[0,0.5,0],[0,0.75,0],[1,0.25,0],[1,0.5,0],[1,0.75,0]];outlineConnect=0;fontColor=#232F3E;fillColor=#C925D1;strokeColor=#ffffff;dashed=0;verticalLabelPosition=bottom;verticalAlign=top;align=center;html=1;fontSize=12;fontStyle=0;aspect=fixed;shape=mxgraph.aws4.resourceIcon;resIcon=mxgraph.aws4.rds;" parent="UEzPUAAOIrF-is8g5C7q-175" vertex="1">
          <mxGeometry x="81" y="39.5" width="78" height="78" as="geometry" />
        </mxCell>
        <mxCell id="uP9no_Rh5933YcSvd-uY-34" value="RDS" style="text;html=1;align=center;verticalAlign=middle;resizable=0;points=[];autosize=1;strokeColor=none;fillColor=none;" parent="UEzPUAAOIrF-is8g5C7q-175" vertex="1">
          <mxGeometry x="95" y="117.5" width="50" height="30" as="geometry" />
        </mxCell>
        <mxCell id="uP9no_Rh5933YcSvd-uY-39" style="edgeStyle=orthogonalEdgeStyle;rounded=0;orthogonalLoop=1;jettySize=auto;html=1;" parent="UEzPUAAOIrF-is8g5C7q-175" source="uP9no_Rh5933YcSvd-uY-35" target="uP9no_Rh5933YcSvd-uY-31" edge="1">
          <mxGeometry relative="1" as="geometry" />
        </mxCell>
        <mxCell id="uP9no_Rh5933YcSvd-uY-35" value="" style="outlineConnect=0;dashed=0;verticalLabelPosition=bottom;verticalAlign=top;align=center;html=1;shape=mxgraph.aws3.ec2;fillColor=#F58534;gradientColor=none;" parent="UEzPUAAOIrF-is8g5C7q-175" vertex="1">
          <mxGeometry x="461" y="32" width="76.5" height="93" as="geometry" />
        </mxCell>
        <mxCell id="uP9no_Rh5933YcSvd-uY-36" value="EC2" style="text;html=1;align=center;verticalAlign=middle;resizable=0;points=[];autosize=1;strokeColor=none;fillColor=none;" parent="UEzPUAAOIrF-is8g5C7q-175" vertex="1">
          <mxGeometry x="474.25" y="125" width="50" height="30" as="geometry" />
        </mxCell>
        <mxCell id="uP9no_Rh5933YcSvd-uY-37" value="" style="outlineConnect=0;dashed=0;verticalLabelPosition=bottom;verticalAlign=top;align=center;html=1;shape=mxgraph.aws3.route_53;fillColor=#F58536;gradientColor=none;" parent="UEzPUAAOIrF-is8g5C7q-175" vertex="1">
          <mxGeometry x="311" y="189.5" width="70.5" height="85.5" as="geometry" />
        </mxCell>
        <mxCell id="uP9no_Rh5933YcSvd-uY-38" value="Route 53" style="text;html=1;align=center;verticalAlign=middle;resizable=0;points=[];autosize=1;strokeColor=none;fillColor=none;" parent="UEzPUAAOIrF-is8g5C7q-175" vertex="1">
          <mxGeometry x="311.5" y="279.5" width="70" height="30" as="geometry" />
        </mxCell>
        <mxCell id="uP9no_Rh5933YcSvd-uY-40" style="edgeStyle=orthogonalEdgeStyle;rounded=0;orthogonalLoop=1;jettySize=auto;html=1;entryX=0.435;entryY=-0.083;entryDx=0;entryDy=0;entryPerimeter=0;" parent="UEzPUAAOIrF-is8g5C7q-175" source="uP9no_Rh5933YcSvd-uY-37" target="uP9no_Rh5933YcSvd-uY-36" edge="1">
          <mxGeometry relative="1" as="geometry" />
        </mxCell>
        <mxCell id="uP9no_Rh5933YcSvd-uY-45" value="Specifications:&lt;div&gt;???&lt;/div&gt;" style="rounded=1;whiteSpace=wrap;html=1;" parent="UEzPUAAOIrF-is8g5C7q-175" vertex="1">
          <mxGeometry x="551" y="39.5" width="120" height="60" as="geometry" />
        </mxCell>
        <mxCell id="uP9no_Rh5933YcSvd-uY-2" value="Conda" style="shape=cylinder3;whiteSpace=wrap;html=1;boundedLbl=1;backgroundOutline=1;size=15;" parent="1" vertex="1">
          <mxGeometry x="125" y="-140" width="70" height="80" as="geometry" />
        </mxCell>
        <mxCell id="uP9no_Rh5933YcSvd-uY-3" value="Fooocus" style="shape=cylinder3;whiteSpace=wrap;html=1;boundedLbl=1;backgroundOutline=1;size=15;" parent="1" vertex="1">
          <mxGeometry x="900" y="-110" width="70" height="80" as="geometry" />
        </mxCell>
        <mxCell id="uP9no_Rh5933YcSvd-uY-16" value="MaskAI Generation" style="shape=cylinder3;whiteSpace=wrap;html=1;boundedLbl=1;backgroundOutline=1;size=15;" parent="1" vertex="1">
          <mxGeometry x="900" y="-10" width="70" height="80" as="geometry" />
        </mxCell>
        <mxCell id="uP9no_Rh5933YcSvd-uY-49" style="edgeStyle=orthogonalEdgeStyle;rounded=0;orthogonalLoop=1;jettySize=auto;html=1;entryX=1;entryY=0.5;entryDx=0;entryDy=0;" parent="1" source="uP9no_Rh5933YcSvd-uY-17" target="uP9no_Rh5933YcSvd-uY-47" edge="1">
          <mxGeometry relative="1" as="geometry" />
        </mxCell>
        <mxCell id="uP9no_Rh5933YcSvd-uY-17" value="Integrations" style="rounded=1;whiteSpace=wrap;html=1;" parent="1" vertex="1">
          <mxGeometry x="880" y="-210" width="120" height="60" as="geometry" />
        </mxCell>
        <mxCell id="uP9no_Rh5933YcSvd-uY-18" value="FastAPI" style="shape=cylinder3;whiteSpace=wrap;html=1;boundedLbl=1;backgroundOutline=1;size=15;" parent="1" vertex="1">
          <mxGeometry x="125" y="-50" width="70" height="80" as="geometry" />
        </mxCell>
        <mxCell id="uP9no_Rh5933YcSvd-uY-19" value="Gradio" style="shape=cylinder3;whiteSpace=wrap;html=1;boundedLbl=1;backgroundOutline=1;size=15;" parent="1" vertex="1">
          <mxGeometry x="124" y="43" width="70" height="80" as="geometry" />
        </mxCell>
        <mxCell id="uP9no_Rh5933YcSvd-uY-48" style="edgeStyle=orthogonalEdgeStyle;rounded=0;orthogonalLoop=1;jettySize=auto;html=1;entryX=0;entryY=0.5;entryDx=0;entryDy=0;" parent="1" source="uP9no_Rh5933YcSvd-uY-20" target="uP9no_Rh5933YcSvd-uY-47" edge="1">
          <mxGeometry relative="1" as="geometry" />
        </mxCell>
        <mxCell id="uP9no_Rh5933YcSvd-uY-20" value="Libraries" style="rounded=1;whiteSpace=wrap;html=1;" parent="1" vertex="1">
          <mxGeometry x="99" y="-210" width="120" height="60" as="geometry" />
        </mxCell>
        <mxCell id="uP9no_Rh5933YcSvd-uY-43" style="edgeStyle=orthogonalEdgeStyle;rounded=0;orthogonalLoop=1;jettySize=auto;html=1;" parent="1" source="uP9no_Rh5933YcSvd-uY-21" target="UEzPUAAOIrF-is8g5C7q-175" edge="1">
          <mxGeometry relative="1" as="geometry" />
        </mxCell>
        <mxCell id="uP9no_Rh5933YcSvd-uY-21" value="" style="sketch=0;outlineConnect=0;fillColor=#fa6800;strokeColor=#C73500;dashed=0;verticalLabelPosition=bottom;verticalAlign=top;align=center;html=1;fontSize=12;fontStyle=0;aspect=fixed;pointerEvents=1;shape=mxgraph.aws4.servers;fontColor=#000000;" parent="1" vertex="1">
          <mxGeometry x="430" y="-310" width="90" height="90" as="geometry" />
        </mxCell>
        <mxCell id="uP9no_Rh5933YcSvd-uY-24" value="Monolith Server" style="text;html=1;align=center;verticalAlign=middle;resizable=0;points=[];autosize=1;strokeColor=none;fillColor=none;" parent="1" vertex="1">
          <mxGeometry x="420" y="-220" width="110" height="30" as="geometry" />
        </mxCell>
        <mxCell id="uP9no_Rh5933YcSvd-uY-42" style="edgeStyle=orthogonalEdgeStyle;rounded=0;orthogonalLoop=1;jettySize=auto;html=1;" parent="1" source="uP9no_Rh5933YcSvd-uY-26" target="UEzPUAAOIrF-is8g5C7q-175" edge="1">
          <mxGeometry relative="1" as="geometry" />
        </mxCell>
        <mxCell id="uP9no_Rh5933YcSvd-uY-26" value="" style="sketch=0;outlineConnect=0;fontColor=#000000;fillColor=#fa6800;strokeColor=#C73500;dashed=0;verticalLabelPosition=bottom;verticalAlign=top;align=center;html=1;fontSize=12;fontStyle=0;aspect=fixed;pointerEvents=1;shape=mxgraph.aws4.generic_database;" parent="1" vertex="1">
          <mxGeometry x="660" y="-310" width="59" height="78" as="geometry" />
        </mxCell>
        <mxCell id="uP9no_Rh5933YcSvd-uY-29" value="PG Database" style="text;html=1;align=center;verticalAlign=middle;resizable=0;points=[];autosize=1;strokeColor=none;fillColor=none;" parent="1" vertex="1">
          <mxGeometry x="639.5" y="-220" width="100" height="30" as="geometry" />
        </mxCell>
      </root>
    </mxGraphModel>
  </diagram>
  <diagram id="4SRJt6VJzILQeYWpK7Va" name="Requirements">
    <mxGraphModel dx="1719" dy="1067" grid="1" gridSize="10" guides="1" tooltips="1" connect="1" arrows="1" fold="1" page="1" pageScale="1" pageWidth="827" pageHeight="1169" math="0" shadow="0">
      <root>
        <mxCell id="0" />
        <mxCell id="1" parent="0" />
        <mxCell id="W3Ro_g8Bc_G9HPGQiPzl-1" value="1. UI" style="text;html=1;align=center;verticalAlign=middle;resizable=0;points=[];autosize=1;strokeColor=none;fillColor=none;" parent="1" vertex="1">
          <mxGeometry x="55" y="88" width="50" height="30" as="geometry" />
        </mxCell>
        <mxCell id="W3Ro_g8Bc_G9HPGQiPzl-2" value="Prompt" style="rounded=0;whiteSpace=wrap;html=1;" parent="1" vertex="1">
          <mxGeometry x="105" y="160" width="525" height="70" as="geometry" />
        </mxCell>
        <mxCell id="W3Ro_g8Bc_G9HPGQiPzl-3" value="IMAGEN DE LA PERSONA CON LA ROPA" style="rounded=1;whiteSpace=wrap;html=1;" parent="1" vertex="1">
          <mxGeometry x="105" y="250" width="225" height="290" as="geometry" />
        </mxCell>
        <mxCell id="W3Ro_g8Bc_G9HPGQiPzl-4" value="MASK DE LA ROPA" style="rounded=1;whiteSpace=wrap;html=1;" parent="1" vertex="1">
          <mxGeometry x="405" y="250" width="225" height="290" as="geometry" />
        </mxCell>
        <mxCell id="W3Ro_g8Bc_G9HPGQiPzl-8" value="Random" style="strokeWidth=1;shadow=0;dashed=0;align=center;html=1;shape=mxgraph.mockup.forms.rrect;rSize=0;fillColor=#eeeeee;strokeColor=#999999;gradientColor=#cccccc;align=left;spacingLeft=4;fontSize=17;fontColor=#666666;labelPosition=right;" parent="1" vertex="1">
          <mxGeometry x="120" y="585" width="15" height="15" as="geometry" />
        </mxCell>
        <mxCell id="W3Ro_g8Bc_G9HPGQiPzl-9" value="Face Swap?(Is not available for Input or Outpaint)" style="strokeWidth=1;shadow=0;dashed=0;align=center;html=1;shape=mxgraph.mockup.forms.rrect;rSize=0;fillColor=#eeeeee;strokeColor=#999999;gradientColor=#cccccc;align=left;spacingLeft=4;fontSize=17;fontColor=#666666;labelPosition=right;" parent="1" vertex="1">
          <mxGeometry x="120" y="620" width="15" height="15" as="geometry" />
        </mxCell>
      </root>
    </mxGraphModel>
  </diagram>
</mxfile>
